<?xml version="1.0" standalone="no"?>
<!DOCTYPE svg PUBLIC "-//W3C//DTD SVG 20010904//EN"
 "http://www.w3.org/TR/2001/REC-SVG-20010904/DTD/svg10.dtd">
<svg version="1.0" xmlns="http://www.w3.org/2000/svg"
 width="2475.000000pt" height="2475.000000pt" viewBox="0 0 2475.000000 2475.000000"
 preserveAspectRatio="xMidYMid meet">
<metadata>
Created by potrace 1.14, written by Peter Selinger 2001-2017
</metadata>
<g transform="translate(0.000000,2475.000000) scale(0.100000,-0.100000)"
fill="#000000" stroke="none">
<path d="M20395 23695 c-78 -17 -109 -30 -149 -60 -67 -51 -113 -63 -299 -79
-159 -13 -185 -18 -240 -44 -34 -17 -75 -33 -91 -36 -29 -7 -52 -24 -177 -129
-86 -72 -259 -274 -259 -302 0 -6 -9 -20 -20 -30 -10 -9 -26 -39 -35 -65 -9
-26 -24 -55 -35 -65 -10 -9 -22 -31 -25 -47 -4 -17 -18 -54 -31 -83 -64 -139
-63 -775 2 -1080 32 -149 37 -195 38 -355 1 -160 0 -167 -28 -232 -15 -38 -41
-86 -57 -108 -16 -22 -29 -48 -29 -57 0 -11 -53 -55 -141 -118 -135 -96 -182
-135 -163 -135 9 0 338 233 425 300 24 19 66 54 93 78 28 24 67 52 88 63 22
11 41 26 44 34 3 8 15 17 25 20 11 4 41 24 67 46 26 22 58 49 72 61 13 11 36
25 50 31 14 6 37 22 52 36 97 92 287 251 300 251 4 0 8 6 8 14 0 7 7 20 17 27
25 22 162 196 175 224 6 14 22 32 34 40 13 8 31 30 39 48 18 39 54 91 90 132
33 38 68 89 96 140 12 22 32 53 45 68 13 16 24 34 24 42 0 18 23 25 81 25 43
0 51 -3 61 -25 6 -13 25 -29 43 -35 18 -6 50 -26 72 -45 l40 -34 6 -178 c3
-126 9 -188 20 -213 8 -19 20 -73 27 -120 15 -111 75 -366 107 -455 14 -38 30
-89 37 -112 6 -23 19 -50 28 -60 8 -10 27 -41 41 -69 14 -27 33 -57 42 -64 10
-8 21 -24 26 -37 5 -13 15 -23 24 -23 41 0 46 -116 10 -227 -34 -102 -45 -215
-45 -463 0 -353 37 -873 65 -916 8 -13 23 -44 33 -71 26 -68 56 -103 146 -173
25 -19 48 -45 51 -56 10 -35 -20 -81 -61 -94 -41 -14 -155 -125 -179 -175 -8
-18 -15 -47 -15 -64 0 -18 -11 -59 -25 -92 -18 -42 -29 -92 -35 -163 -5 -56
-16 -122 -25 -147 -9 -24 -20 -108 -26 -189 -13 -172 -6 -580 10 -630 6 -20
24 -43 42 -55 38 -25 126 -135 135 -170 9 -35 -13 -81 -44 -94 -15 -6 -57 -15
-93 -20 -86 -12 -109 -28 -149 -104 -18 -34 -44 -75 -57 -90 -12 -16 -23 -40
-23 -54 0 -14 -13 -55 -30 -90 -16 -34 -30 -69 -30 -77 0 -7 -13 -57 -30 -110
-16 -53 -32 -120 -36 -149 -4 -28 -17 -80 -30 -115 -13 -35 -26 -86 -30 -115
-3 -29 -17 -96 -30 -149 -13 -53 -24 -125 -24 -160 0 -53 5 -70 30 -108 16
-25 30 -49 30 -54 0 -4 11 -21 25 -38 14 -16 25 -40 25 -52 0 -33 -46 -74 -89
-82 -47 -8 -176 -70 -221 -106 -44 -35 -40 -31 -178 -173 -48 -49 -151 -152
-228 -230 -78 -77 -151 -154 -163 -172 -12 -17 -30 -35 -41 -38 -11 -4 -20
-12 -20 -18 0 -7 -29 -43 -65 -79 -36 -37 -65 -74 -65 -81 0 -8 -9 -22 -20
-32 -11 -10 -31 -38 -45 -61 -14 -24 -30 -44 -35 -44 -5 0 -16 -15 -24 -34 -8
-18 -22 -40 -33 -47 -10 -8 -23 -25 -30 -39 -6 -14 -47 -74 -92 -133 -106
-142 -125 -208 -76 -265 35 -41 33 -85 -4 -123 -20 -19 -40 -29 -59 -29 -17 0
-43 -10 -59 -23 -15 -12 -48 -36 -73 -52 -55 -35 -286 -268 -320 -323 -14 -22
-37 -47 -52 -55 -16 -9 -28 -24 -28 -35 0 -10 -11 -29 -25 -42 -14 -13 -25
-28 -25 -33 0 -6 -11 -24 -24 -42 -32 -41 -101 -175 -110 -211 -4 -16 -18 -45
-31 -65 -13 -20 -28 -52 -33 -72 -6 -20 -21 -51 -35 -69 -14 -18 -28 -44 -32
-57 -4 -12 -18 -39 -32 -60 -30 -44 -28 -104 6 -147 41 -53 17 -144 -39 -144
-11 0 -43 -9 -72 -20 -29 -11 -87 -27 -128 -36 -41 -8 -96 -26 -121 -39 -25
-13 -65 -28 -90 -35 -24 -6 -58 -20 -75 -29 -17 -10 -53 -26 -81 -35 -28 -9
-59 -26 -68 -36 -10 -11 -23 -20 -30 -20 -6 0 -36 -18 -65 -40 -29 -22 -58
-40 -63 -40 -19 0 -209 -173 -262 -240 -31 -37 -63 -71 -72 -74 -9 -4 -77 -11
-151 -17 l-135 -10 -33 32 c-19 18 -41 53 -51 78 -9 25 -24 55 -34 66 -9 11
-26 39 -38 63 -12 23 -25 42 -30 42 -9 0 -58 71 -93 134 -10 17 -27 38 -37 46
-11 8 -31 40 -44 71 -16 36 -48 80 -88 121 l-64 65 -320 -7 c-307 -7 -323 -8
-390 -32 -38 -14 -106 -33 -149 -42 -43 -10 -106 -28 -140 -41 -34 -12 -80
-26 -103 -30 -26 -4 -54 -18 -76 -38 -67 -61 -109 -86 -156 -92 -25 -3 -68
-15 -96 -26 -27 -12 -85 -30 -128 -40 -43 -11 -109 -37 -150 -60 -95 -54 -141
-95 -433 -389 -58 -59 -104 -111 -115 -133 -15 -27 -121 -164 -158 -202 -15
-16 -35 -44 -44 -61 -9 -17 -34 -54 -57 -83 -23 -29 -47 -64 -53 -79 -7 -15
-31 -52 -53 -82 -23 -30 -54 -77 -69 -105 -15 -27 -35 -55 -45 -62 -10 -7 -21
-28 -24 -46 -4 -19 -15 -42 -26 -52 -11 -10 -42 -63 -70 -119 -28 -56 -58
-106 -68 -113 -10 -6 -24 -29 -30 -51 -15 -50 -35 -63 -147 -91 -140 -36 -166
-40 -228 -41 -78 0 -103 23 -111 106 -6 56 -28 194 -47 294 -4 25 -13 169 -19
320 -12 317 -24 446 -45 497 -17 40 -30 154 -40 338 -7 118 -7 121 -41 162
-19 23 -64 62 -100 87 -65 46 -65 46 -150 46 -70 0 -93 -4 -132 -24 -27 -13
-66 -27 -88 -31 -49 -8 -94 -25 -94 -35 0 -5 -20 -20 -43 -34 -24 -14 -90 -76
-147 -138 -57 -62 -175 -185 -261 -273 -118 -119 -168 -178 -198 -232 -23 -40
-41 -79 -41 -86 0 -8 -16 -44 -35 -80 -19 -36 -35 -74 -35 -84 0 -10 -12 -42
-25 -72 -14 -30 -29 -82 -34 -116 -5 -34 -18 -82 -30 -107 -11 -25 -25 -86
-31 -134 -5 -49 -17 -114 -25 -144 -8 -30 -24 -122 -35 -204 -12 -82 -27 -174
-35 -205 -8 -31 -19 -112 -25 -180 -6 -68 -22 -168 -35 -222 -14 -54 -25 -107
-25 -119 0 -60 -174 -179 -244 -166 -45 9 -92 42 -128 92 l-29 41 -14 259
c-16 299 -17 305 -52 380 -24 52 -26 71 -34 263 -9 228 -15 295 -30 323 -5 10
-20 83 -34 162 -13 80 -31 165 -39 190 -8 24 -20 113 -26 195 -6 83 -15 163
-20 177 -22 56 -72 115 -122 142 -28 15 -60 33 -72 39 -34 20 -67 15 -136 -19
-73 -37 -197 -156 -206 -198 -3 -14 -16 -56 -29 -95 -16 -48 -26 -115 -34
-214 -9 -126 -14 -149 -35 -180 -20 -30 -25 -54 -31 -141 -4 -58 -13 -139 -21
-180 -32 -165 -27 -501 11 -640 8 -30 19 -102 25 -160 6 -58 22 -139 35 -180
13 -41 31 -117 40 -169 9 -52 21 -103 26 -113 5 -10 21 -69 34 -130 14 -62 34
-134 45 -161 15 -35 22 -78 26 -160 l5 -112 -34 -55 c-37 -62 -74 -79 -129
-64 -26 7 -38 20 -58 61 -14 28 -31 58 -38 67 -20 22 -87 156 -102 201 -7 21
-23 53 -36 73 -13 19 -24 43 -24 52 0 9 -13 41 -29 71 -16 30 -36 82 -45 117
-8 34 -22 72 -30 85 -8 12 -22 51 -31 86 -9 36 -25 81 -35 101 -10 19 -25 75
-33 123 -8 48 -25 102 -36 120 -12 20 -26 72 -35 133 -9 55 -22 116 -30 136
-9 20 -24 78 -36 129 -11 51 -26 102 -33 113 -18 28 -34 80 -42 138 -3 28 -16
60 -29 75 -13 16 -28 44 -35 64 -6 20 -21 45 -31 54 -11 10 -34 43 -51 73 -17
31 -60 83 -96 116 -36 34 -80 84 -99 112 -45 68 -196 204 -225 204 -7 0 -30
12 -51 27 -42 29 -116 58 -190 76 -43 10 -54 8 -113 -16 -36 -15 -76 -27 -89
-27 -13 0 -41 -12 -62 -26 -21 -15 -55 -32 -74 -39 -37 -13 -78 -61 -109 -130
-30 -66 -61 -204 -61 -270 0 -74 -14 -159 -40 -240 -11 -33 -27 -126 -35 -207
-8 -80 -22 -164 -29 -186 -28 -78 -29 -125 -7 -206 20 -72 20 -81 7 -129 -8
-29 -20 -88 -26 -132 -16 -125 -46 -158 -165 -185 -51 -11 -94 -39 -150 -96
-16 -17 -49 -43 -72 -58 l-41 -27 -40 20 c-22 11 -49 32 -61 47 -31 39 -101
82 -156 94 -27 6 -63 19 -80 30 -103 63 -510 107 -760 81 -151 -15 -433 -58
-530 -81 -214 -50 -436 -123 -479 -157 -16 -13 -33 -23 -38 -23 -27 0 -221
-106 -268 -146 -67 -57 -88 -65 -145 -57 -39 5 -49 12 -78 52 -18 25 -45 67
-60 93 -15 27 -32 48 -37 48 -5 0 -16 13 -24 29 -11 21 -27 31 -59 40 -25 6
-47 17 -50 25 -3 8 -22 18 -41 22 -20 3 -57 21 -83 40 -26 19 -53 34 -59 34
-6 0 -31 9 -55 19 -24 11 -91 27 -148 36 -57 8 -121 25 -142 35 -26 14 -75 23
-156 30 -65 6 -149 20 -187 32 -67 20 -83 21 -415 15 -335 -5 -348 -6 -421
-30 -41 -14 -111 -30 -155 -37 -44 -7 -113 -25 -153 -41 -40 -16 -80 -29 -90
-29 -9 0 -44 -13 -77 -28 -33 -16 -73 -32 -90 -36 -16 -4 -50 -20 -75 -35 -25
-16 -57 -31 -71 -35 -26 -6 -135 -66 -154 -85 -5 -6 -14 -15 -20 -21 -13 -13
-71 -54 -109 -77 -16 -10 -45 -32 -64 -49 -19 -17 -50 -44 -69 -60 -59 -50
-133 -128 -133 -142 0 -7 -11 -18 -25 -24 -14 -6 -35 -30 -46 -52 -44 -88 -65
-125 -81 -143 -10 -10 -24 -38 -33 -62 -8 -24 -26 -56 -40 -73 -14 -16 -25
-42 -25 -57 0 -16 -11 -49 -25 -74 -13 -26 -33 -85 -44 -132 -12 -47 -25 -94
-30 -104 -6 -10 -15 -84 -21 -165 -7 -95 -18 -166 -30 -199 -10 -29 -24 -72
-30 -97 -7 -25 -27 -62 -46 -82 -19 -21 -34 -43 -34 -48 0 -6 -7 -10 -15 -10
-8 0 -24 -17 -35 -37 -12 -21 -31 -52 -43 -69 -12 -18 -30 -45 -39 -60 -28
-47 -41 -67 -70 -111 -16 -23 -31 -56 -35 -75 -3 -18 -19 -53 -35 -77 -15 -25
-28 -51 -28 -58 0 -13 -104 -236 -152 -327 -11 -22 -31 -71 -44 -110 -45 -137
-65 -192 -91 -241 -35 -65 -44 -184 -18 -236 23 -45 85 -109 106 -109 25 0
106 66 113 93 3 13 21 43 41 68 19 24 35 51 35 59 0 9 11 31 24 50 12 19 29
52 35 72 7 21 17 40 22 44 6 3 22 30 36 60 14 30 31 54 38 54 7 0 18 13 25 30
16 38 38 44 106 29 l57 -13 39 45 c22 24 57 63 79 86 21 23 39 46 39 52 0 5
11 23 25 39 14 17 32 50 40 73 9 24 24 53 34 64 10 11 22 34 25 51 4 17 18 42
31 54 14 13 28 39 31 57 13 70 113 159 250 222 23 11 45 24 48 30 4 6 32 18
62 27 30 8 67 26 82 39 15 13 46 28 68 34 23 6 58 25 79 41 21 17 42 30 46 30
5 0 9 6 9 13 0 8 11 26 23 41 13 15 31 51 40 79 40 126 102 146 272 88 228
-78 199 -74 555 -79 363 -4 582 8 668 38 30 11 92 26 139 35 47 9 120 27 162
40 42 13 101 28 132 34 30 5 77 21 104 35 26 14 57 26 69 26 12 0 48 12 81 26
33 14 86 33 117 43 31 10 69 28 84 40 15 11 32 21 39 21 7 0 31 14 55 31 24
17 59 38 78 46 20 8 50 25 66 38 31 23 32 23 496 29 256 4 572 11 702 16 207
9 246 13 310 34 46 15 112 26 173 31 177 11 305 25 332 36 14 5 79 21 144 35
65 13 137 33 161 44 24 11 54 20 67 20 25 0 131 -65 131 -80 0 -5 20 -21 44
-35 23 -14 51 -34 61 -45 10 -11 24 -20 31 -20 8 0 26 -11 41 -25 37 -33 158
-105 177 -105 9 0 23 -11 32 -25 10 -15 29 -27 52 -31 21 -3 67 -19 104 -35
36 -16 74 -29 84 -29 9 0 36 -11 58 -24 23 -13 64 -27 91 -31 28 -3 104 -17
170 -30 80 -16 189 -28 325 -35 113 -6 214 -13 225 -16 36 -10 125 -59 125
-68 0 -10 14 -26 157 -173 88 -92 90 -93 137 -93 55 0 111 -29 121 -61 4 -12
1 -50 -5 -86 -14 -70 -7 -253 10 -298 14 -37 44 -49 95 -36 24 6 63 11 87 11
29 0 55 8 78 24 19 12 58 34 85 48 93 46 220 120 245 143 40 36 65 45 127 45
48 0 68 -5 106 -30 26 -16 52 -41 58 -54 17 -36 3 -88 -31 -121 -17 -16 -30
-34 -30 -40 0 -7 -13 -32 -30 -56 -16 -24 -30 -51 -30 -60 0 -9 -14 -41 -30
-72 -19 -36 -30 -71 -30 -97 0 -34 3 -40 26 -46 38 -10 654 3 754 16 47 6 102
17 122 25 20 8 66 21 102 29 76 18 224 86 251 116 10 11 24 20 31 20 7 0 28
13 46 29 18 16 54 34 78 40 25 7 69 23 98 38 73 36 139 30 188 -18 19 -19 37
-45 41 -59 3 -14 16 -38 28 -55 12 -16 30 -45 39 -62 9 -18 23 -33 31 -33 8 0
21 -13 30 -30 9 -16 20 -30 26 -30 5 0 51 -41 102 -91 63 -63 105 -96 133
-106 23 -8 50 -23 60 -34 9 -10 22 -19 28 -19 21 0 110 -68 204 -153 94 -87
118 -100 207 -112 41 -6 57 -15 93 -50 37 -37 42 -47 33 -63 -17 -31 -65 -42
-216 -49 -98 -4 -156 -11 -195 -24 -30 -11 -95 -24 -145 -30 -195 -23 -223
-28 -266 -47 -24 -11 -79 -25 -122 -31 -49 -7 -102 -23 -140 -41 -34 -17 -69
-30 -77 -30 -9 0 -47 -16 -86 -35 -38 -19 -78 -35 -89 -35 -11 0 -40 -14 -64
-30 -24 -17 -52 -30 -61 -30 -18 0 -227 -103 -244 -120 -6 -6 -17 -10 -27 -10
-9 0 -43 -18 -75 -40 -33 -22 -66 -40 -75 -40 -8 0 -33 -13 -55 -29 -21 -16
-50 -32 -63 -36 -12 -4 -39 -18 -58 -31 -20 -13 -41 -24 -47 -24 -7 0 -38 -15
-69 -34 -31 -19 -72 -39 -90 -45 -19 -7 -49 -23 -67 -36 -19 -14 -41 -25 -50
-25 -9 0 -34 -13 -56 -29 -22 -16 -52 -33 -68 -37 -15 -3 -53 -22 -84 -40 -31
-19 -62 -34 -69 -34 -8 0 -33 -10 -56 -22 -23 -12 -69 -31 -102 -43 -88 -33
-162 -64 -230 -95 -33 -16 -73 -32 -90 -36 -16 -4 -56 -20 -87 -35 -32 -16
-66 -29 -75 -29 -10 0 -51 -16 -92 -35 -40 -19 -83 -35 -95 -35 -12 0 -53 -16
-92 -35 -38 -19 -77 -35 -87 -35 -10 0 -40 -12 -68 -26 -28 -14 -79 -34 -114
-45 -35 -11 -67 -24 -70 -28 -3 -5 -35 -20 -72 -32 -37 -12 -89 -33 -114 -46
-26 -12 -53 -23 -60 -23 -15 0 -90 -34 -222 -101 -42 -21 -85 -39 -95 -39 -9
0 -37 -14 -61 -30 -24 -17 -51 -30 -60 -30 -9 0 -35 -11 -58 -24 -23 -13 -59
-29 -80 -36 -21 -7 -55 -25 -75 -41 -20 -16 -41 -29 -46 -29 -6 0 -29 -16 -52
-35 -23 -19 -47 -35 -54 -35 -6 0 -27 -13 -46 -30 -19 -16 -41 -29 -47 -30 -7
0 -30 -16 -52 -35 -21 -19 -43 -35 -48 -35 -5 0 -35 -18 -66 -40 -30 -22 -58
-40 -60 -40 -3 0 -19 -13 -37 -30 -18 -16 -39 -30 -46 -30 -8 0 -36 -23 -62
-51 -44 -48 -66 -84 -125 -205 -13 -28 -32 -54 -41 -57 -9 -4 -16 -13 -16 -22
0 -23 52 -19 84 6 15 12 51 30 79 41 29 11 59 26 69 35 18 16 86 26 283 43 72
5 152 17 179 25 28 8 162 24 298 35 137 11 313 29 391 41 191 27 370 30 415 6
17 -10 68 -22 113 -28 44 -5 104 -20 132 -32 44 -18 71 -21 177 -21 110 -1
130 2 165 21 52 29 269 68 365 67 246 -5 748 -32 768 -43 12 -6 85 -18 162
-26 78 -9 158 -22 178 -31 20 -9 93 -22 161 -30 68 -8 142 -23 165 -33 23 -10
84 -24 136 -30 52 -6 120 -19 150 -30 30 -11 90 -24 133 -30 43 -6 98 -20 123
-31 24 -11 67 -25 95 -30 49 -10 234 -70 257 -84 14 -9 16 -90 2 -115 -5 -10
-26 -21 -47 -25 -21 -3 -58 -20 -82 -36 -24 -17 -54 -30 -67 -30 -35 0 -92
-62 -99 -107 -3 -21 -11 -48 -18 -60 -69 -125 -118 -183 -192 -225 -80 -46
-109 -64 -152 -96 -24 -18 -58 -36 -76 -39 -18 -4 -59 -19 -92 -35 -33 -15
-66 -28 -74 -28 -7 0 -48 -16 -91 -35 -43 -19 -85 -35 -94 -35 -9 0 -38 -12
-65 -26 -42 -22 -70 -27 -188 -35 -325 -22 -390 -29 -447 -49 -32 -11 -98 -27
-146 -35 -48 -8 -100 -22 -116 -30 -37 -18 -160 -32 -404 -45 -241 -13 -376
-26 -466 -45 -88 -19 -147 -19 -227 0 -36 8 -172 22 -303 30 -134 9 -287 25
-348 36 -116 22 -129 22 -266 -16 -145 -40 -378 -38 -456 4 -41 22 -94 28 -94
11 0 -5 6 -10 14 -10 8 0 24 -13 36 -30 12 -16 32 -33 46 -36 13 -4 31 -15 38
-25 15 -22 138 -99 158 -99 7 0 44 -16 82 -35 39 -19 77 -35 85 -35 9 0 39
-14 66 -30 28 -16 58 -30 68 -30 10 0 40 -11 67 -25 27 -14 88 -34 136 -45 47
-11 95 -25 106 -31 10 -6 63 -15 116 -20 64 -7 108 -17 131 -30 20 -12 67 -24
115 -30 44 -5 117 -18 161 -29 44 -11 150 -24 235 -30 85 -6 182 -17 215 -26
93 -23 226 -33 540 -40 396 -9 827 16 958 56 59 18 108 26 324 50 50 6 106 17
125 24 19 8 74 22 124 31 49 10 118 28 154 41 35 14 92 28 125 31 33 3 88 16
121 29 34 13 99 32 144 43 46 12 89 26 95 31 7 6 46 20 86 31 40 11 84 29 99
39 15 11 48 24 74 30 26 6 69 21 94 34 26 13 67 29 92 36 25 7 56 20 70 30 14
9 42 23 62 29 20 7 41 18 48 26 6 7 41 26 78 41 37 15 83 38 102 51 19 13 42
23 50 23 8 0 32 11 52 25 20 13 58 33 84 43 27 10 67 31 88 45 21 15 47 27 57
27 10 0 26 9 36 19 10 11 43 29 74 40 31 12 64 30 73 40 10 11 32 22 51 25 18
4 44 18 57 31 13 14 28 25 34 25 19 0 97 82 118 123 33 65 65 80 185 88 74 5
125 15 171 32 36 14 105 30 154 36 49 7 107 19 130 27 23 9 71 23 107 33 36 9
87 31 114 49 27 18 53 32 58 32 5 0 22 12 37 28 55 53 218 172 237 172 8 0 17
8 20 17 4 9 37 45 74 81 38 35 85 89 105 120 66 102 84 128 104 150 11 12 25
45 30 74 6 28 19 67 30 85 11 18 27 59 36 91 9 31 23 70 31 86 9 17 21 50 27
75 8 32 18 49 36 58 52 25 157 61 200 68 25 4 78 20 118 36 40 16 99 33 131
38 33 5 76 18 97 29 22 11 57 25 79 32 22 7 58 25 80 40 22 15 52 35 68 44 15
9 27 23 27 30 0 8 6 16 14 19 7 3 34 32 59 65 34 44 47 73 52 109 4 26 18 73
31 103 13 30 28 81 33 112 6 31 19 74 30 95 10 21 24 64 30 95 5 32 19 75 30
97 32 62 45 244 37 526 -6 258 -14 310 -50 359 -13 17 -31 53 -40 80 -25 75
-92 156 -181 218 -60 42 -165 123 -212 165 -50 45 -68 88 -53 127 11 30 38 43
112 51 29 4 98 19 153 35 55 16 126 32 158 35 69 8 107 36 143 106 30 60 59
76 172 94 48 8 113 24 144 35 32 11 104 27 162 35 60 8 121 23 142 34 21 11
61 25 91 31 29 6 60 18 68 26 8 9 47 24 86 35 40 11 90 30 113 43 23 13 57 27
76 31 38 8 142 62 204 107 21 15 44 28 51 28 6 0 24 14 40 30 16 17 34 30 40
30 6 0 28 15 50 32 l39 33 166 -1 c117 -1 182 -5 225 -17 33 -9 98 -21 145
-27 47 -6 108 -22 136 -35 102 -46 198 -44 259 5 31 25 40 27 68 19 55 -15 70
-44 63 -119 -3 -36 -15 -90 -26 -120 -28 -78 -25 -142 10 -248 17 -50 30 -102
30 -114 0 -13 15 -55 33 -93 19 -39 37 -82 40 -96 4 -14 20 -43 37 -64 16 -21
30 -43 30 -50 0 -7 10 -25 22 -40 24 -31 67 -108 98 -175 11 -25 27 -56 35
-70 8 -14 22 -41 31 -60 39 -85 53 -106 84 -127 18 -13 47 -23 65 -23 69 0 99
-55 125 -230 6 -41 19 -93 30 -115 10 -22 30 -65 44 -95 14 -30 44 -86 65
-125 22 -38 49 -89 60 -111 10 -23 24 -45 30 -49 6 -3 24 -32 40 -63 16 -31
38 -66 50 -76 12 -11 21 -25 21 -31 0 -7 14 -29 30 -50 17 -21 30 -43 30 -49
0 -6 16 -31 35 -55 19 -24 35 -54 35 -67 0 -13 9 -28 20 -34 11 -6 33 -29 48
-52 15 -22 38 -58 53 -80 14 -21 35 -51 47 -66 13 -15 33 -41 45 -59 69 -99
140 -183 169 -201 18 -11 47 -35 63 -52 43 -46 77 -60 141 -60 52 0 59 -3 95
-39 22 -21 39 -48 39 -60 0 -14 11 -28 30 -39 16 -9 30 -22 30 -29 0 -7 10
-18 23 -24 12 -7 36 -24 54 -38 17 -14 61 -44 98 -66 36 -22 82 -52 102 -67
20 -16 42 -28 50 -28 7 0 39 -14 70 -30 31 -17 68 -30 82 -30 14 0 58 -12 96
-25 73 -26 180 -34 214 -16 20 11 153 -24 218 -57 133 -69 75 33 -82 142 -52
36 -82 50 -115 53 -69 7 -91 20 -145 85 -53 65 -141 136 -215 173 -25 12 -63
32 -85 44 -21 11 -46 21 -55 21 -8 0 -35 14 -59 30 -24 17 -54 30 -66 30 -12
0 -49 18 -81 40 -66 44 -71 56 -73 163 -1 66 -33 187 -83 312 -11 28 -33 83
-48 124 -16 40 -35 80 -43 90 -8 9 -21 36 -29 61 -8 25 -27 63 -42 84 -14 21
-26 44 -26 51 0 16 -79 171 -106 210 -12 17 -24 43 -28 60 -4 16 -21 47 -37
69 -16 22 -29 47 -29 57 0 9 -13 33 -30 54 -16 21 -30 43 -30 50 0 7 -12 30
-27 51 -15 21 -38 60 -52 86 -53 95 -106 161 -208 257 l-104 98 -9 121 c-8
113 -10 124 -38 159 -16 21 -33 51 -36 67 -4 16 -18 43 -32 59 -13 16 -24 36
-24 46 0 9 -15 40 -34 69 -19 29 -37 68 -40 87 -4 18 -14 39 -23 46 -9 8 -29
41 -45 74 -52 106 -82 160 -105 189 -13 16 -23 34 -23 41 0 7 -12 30 -26 51
-15 21 -34 59 -42 84 -8 25 -23 55 -34 66 -11 12 -25 45 -33 73 -7 28 -25 66
-40 84 -54 67 -95 128 -95 142 0 8 -6 15 -14 15 -7 0 -26 16 -40 35 -15 19
-34 35 -42 35 -18 0 -104 85 -104 102 0 7 -9 29 -19 49 -11 20 -25 63 -31 97
-13 63 -10 205 3 219 19 19 1016 29 1117 11 36 -6 95 -12 131 -12 102 -1 120
-29 133 -202 3 -39 13 -90 21 -113 8 -23 24 -81 35 -128 11 -47 29 -98 41
-114 11 -16 25 -45 30 -63 5 -19 23 -51 39 -71 17 -21 30 -43 30 -49 0 -6 13
-27 29 -47 17 -20 33 -48 37 -63 3 -14 14 -31 24 -36 10 -5 26 -33 36 -62 9
-29 23 -66 31 -81 17 -34 69 -67 106 -67 31 0 77 -21 95 -43 7 -8 17 -61 22
-118 9 -90 15 -114 50 -184 22 -44 40 -85 40 -90 0 -6 13 -26 30 -45 16 -19
29 -40 30 -46 0 -6 13 -28 30 -49 16 -20 32 -46 36 -58 4 -12 18 -36 33 -53
14 -17 34 -44 44 -60 25 -41 63 -96 82 -117 9 -10 26 -35 38 -55 11 -20 33
-52 49 -70 15 -18 28 -39 28 -47 0 -7 9 -17 20 -20 11 -4 29 -23 39 -43 11
-20 72 -89 135 -152 l116 -114 86 -1 c80 0 87 -2 108 -26 13 -15 39 -32 59
-38 19 -7 41 -19 48 -27 6 -8 36 -21 67 -30 30 -9 69 -24 86 -35 17 -10 62
-25 100 -34 38 -9 83 -24 100 -33 24 -13 58 -17 146 -17 104 0 121 3 176 28
41 18 90 30 148 36 48 5 89 11 92 14 3 2 -12 8 -32 12 -21 3 -62 20 -92 36
-32 17 -70 29 -92 29 -23 0 -50 9 -71 25 -48 34 -174 93 -217 101 -20 4 -66
17 -102 30 -36 12 -104 27 -152 33 -94 11 -144 30 -151 58 -3 10 -8 44 -12 76
-3 31 -11 57 -16 57 -15 0 -49 81 -49 116 0 17 -11 51 -23 75 -13 24 -30 62
-36 84 -7 22 -26 63 -41 91 -16 28 -34 71 -40 95 -7 24 -20 53 -29 64 -10 11
-26 41 -35 68 -10 26 -21 47 -25 47 -5 0 -16 19 -26 43 -11 23 -31 60 -45 82
-14 22 -34 56 -44 75 -10 19 -35 67 -56 105 -21 39 -48 89 -60 113 -11 23 -25
42 -30 42 -5 0 -36 38 -69 83 -50 70 -68 87 -105 101 -52 20 -52 21 -65 139
-10 89 -18 108 -107 247 -12 19 -27 52 -33 72 -7 20 -18 42 -26 48 -8 7 -26
35 -40 63 -46 92 -74 140 -94 161 -10 12 -28 43 -39 69 -12 26 -30 60 -42 74
-11 14 -20 33 -20 43 0 9 -12 35 -26 56 -15 21 -33 59 -40 85 -8 25 -23 54
-33 63 -11 10 -23 32 -26 48 -7 32 -149 188 -171 188 -19 0 -74 68 -101 124
-13 28 -34 67 -46 86 -27 43 -32 164 -7 180 23 15 155 12 243 -5 68 -13 88
-13 150 -1 103 20 129 24 250 36 62 6 131 20 160 31 47 19 76 21 276 22 l224
2 29 -85 c15 -46 35 -118 44 -160 13 -63 51 -161 86 -220 29 -49 45 -76 65
-104 12 -17 32 -49 44 -71 12 -22 35 -55 50 -73 16 -18 29 -39 29 -48 0 -8 7
-17 16 -21 9 -3 27 -30 40 -59 12 -29 28 -55 34 -59 5 -3 20 -25 31 -48 28
-54 33 -57 100 -57 76 0 89 -16 99 -118 9 -86 38 -155 104 -247 20 -27 36 -55
36 -62 0 -7 11 -25 25 -40 48 -53 105 -138 105 -156 0 -10 9 -21 19 -24 11 -3
54 -53 97 -111 42 -59 92 -123 110 -142 18 -19 64 -71 102 -115 68 -78 203
-205 218 -205 4 0 18 -10 31 -22 20 -19 28 -20 61 -12 31 8 46 6 92 -14 30
-13 60 -30 67 -38 13 -18 144 -70 228 -91 33 -9 90 -27 127 -41 57 -21 79 -24
145 -20 54 3 91 12 122 27 24 13 71 28 105 35 l61 13 -40 13 c-22 7 -60 23
-84 36 -24 13 -49 24 -56 24 -7 0 -29 13 -48 29 -20 16 -58 34 -83 40 -26 7
-64 21 -85 32 -22 11 -84 25 -143 33 -79 10 -116 20 -150 40 -58 34 -72 57
-81 126 -4 30 -22 89 -41 131 -19 42 -34 84 -34 92 0 9 -11 28 -25 42 -13 15
-29 43 -36 63 -7 21 -24 55 -39 77 -15 22 -31 51 -35 65 -4 14 -18 38 -31 53
-13 16 -24 35 -24 42 0 7 -16 32 -35 55 -19 23 -35 50 -35 61 0 10 -11 31 -25
46 -33 38 -94 130 -110 169 -7 18 -20 36 -28 40 -8 5 -26 27 -41 49 -14 22
-42 60 -61 85 -20 25 -45 60 -56 78 -12 17 -27 32 -34 32 -7 0 -34 19 -60 43
-48 43 -48 43 -54 122 -4 50 -11 80 -19 83 -7 2 -24 29 -37 59 -14 30 -34 66
-45 81 -44 57 -90 132 -90 147 0 8 -9 23 -21 33 -11 9 -31 37 -44 62 -12 25
-32 54 -44 64 -12 11 -21 25 -21 32 0 7 -11 25 -24 41 -13 15 -34 48 -46 73
-13 25 -31 51 -41 58 -11 7 -19 19 -19 25 0 12 -54 91 -104 153 -15 18 -26 36
-26 42 0 13 -173 183 -227 222 -32 23 -43 40 -56 87 -19 66 -69 151 -95 160
-9 4 -33 17 -53 30 -19 13 -67 30 -105 38 -38 8 -94 23 -124 34 -30 10 -111
24 -180 30 -69 7 -138 16 -155 21 -16 6 -70 17 -119 25 -109 19 -126 28 -126
63 1 65 55 90 199 91 98 1 269 30 330 56 31 12 82 28 113 34 31 7 68 21 82 32
13 11 44 26 67 34 24 9 51 23 62 32 17 16 21 16 45 2 31 -17 73 -97 90 -168
14 -61 77 -197 123 -266 19 -27 48 -77 64 -110 17 -33 33 -61 36 -63 4 -2 23
-17 42 -35 19 -18 56 -48 81 -67 60 -45 83 -81 95 -155 11 -69 33 -125 65
-169 13 -17 28 -45 35 -63 7 -17 19 -34 26 -36 7 -3 34 -38 61 -79 68 -103
221 -285 296 -352 35 -31 83 -63 108 -72 139 -51 179 -66 215 -84 34 -17 60
-20 166 -20 111 0 128 2 143 19 10 11 31 25 47 31 37 16 37 24 -2 41 -18 7
-43 22 -58 34 -29 23 -123 59 -186 70 -93 16 -119 46 -135 155 -13 90 -34 145
-122 315 -9 17 -23 46 -33 65 -14 31 -47 92 -98 185 -9 17 -17 36 -17 42 0 7
-11 20 -24 28 -13 9 -33 35 -44 58 -11 23 -47 70 -81 104 -71 71 -84 99 -111
229 -19 91 -40 146 -59 158 -5 4 -13 21 -17 39 -3 17 -17 45 -30 60 -13 15
-32 47 -43 71 -10 24 -24 47 -30 51 -7 4 -23 30 -37 58 -39 83 -67 125 -96
147 -16 12 -28 26 -28 32 0 5 -45 59 -100 118 -55 60 -100 117 -100 127 0 31
-80 150 -121 178 -64 45 -209 76 -379 82 -129 4 -159 2 -270 -21 -147 -31
-163 -31 -200 -9 -39 22 -50 52 -50 131 0 144 14 168 112 201 54 18 82 37 181
126 64 58 122 115 128 128 7 12 26 39 43 59 68 82 86 106 95 129 5 13 21 39
35 58 14 19 26 40 26 46 0 7 9 20 20 30 23 20 58 81 128 220 12 23 26 63 32
90 6 28 22 74 36 102 13 29 29 75 34 103 5 28 20 74 32 103 19 44 23 69 23
158 -1 102 -2 108 -33 154 -18 27 -32 56 -32 65 0 9 -7 25 -15 36 -8 10 -15
26 -15 33 0 26 50 89 81 101 29 13 79 82 79 112 0 8 13 34 29 59 26 38 31 59
40 154 5 61 17 138 26 173 14 53 16 105 12 310 -3 217 -6 254 -25 308 -11 33
-26 99 -32 145 -6 46 -26 134 -45 194 -19 61 -37 127 -40 149 -5 31 -24 56
-94 130 -47 50 -101 108 -119 129 l-33 38 22 39 c12 22 37 46 55 55 18 8 51
31 73 49 23 19 50 38 61 41 18 6 40 57 40 94 0 8 11 38 25 67 14 29 29 84 35
124 5 39 17 87 25 107 9 20 22 80 31 132 8 53 24 115 34 139 11 25 24 89 30
149 6 58 17 124 25 147 20 56 38 248 31 319 -9 85 -15 93 -92 106 -73 13 -129
38 -158 70 -15 17 -18 30 -12 68 7 55 54 111 121 145 69 36 135 98 135 127 0
14 9 40 19 57 26 42 29 65 41 259 5 94 19 238 31 320 18 131 21 185 17 421
l-4 271 -32 50 c-18 27 -32 57 -32 66 0 19 -65 87 -84 87 -23 0 -46 36 -46 74
0 32 7 44 55 88 37 34 66 75 92 127 l38 76 -2 290 c-1 322 -13 498 -43 667
-11 62 -27 174 -35 248 -17 148 -18 153 -45 225 -11 28 -24 69 -30 93 -15 58
-63 112 -102 112 -42 0 -85 25 -92 56 -9 35 10 89 38 108 37 23 66 124 73 244
5 93 4 108 -16 147 -12 24 -31 85 -42 135 -11 51 -26 108 -34 127 -8 19 -22
69 -30 111 -9 42 -25 91 -36 108 -11 18 -26 63 -33 101 -7 39 -24 84 -39 107
-15 21 -27 46 -27 55 0 28 -94 205 -135 255 -21 25 -55 56 -76 68 -57 32 -60
77 -8 147 19 26 20 37 14 100 -5 53 -13 77 -31 98 -13 15 -24 35 -24 44 0 20
-79 146 -114 180 -14 15 -26 30 -26 34 0 4 -16 24 -35 44 -20 20 -66 72 -103
117 -105 127 -123 144 -252 243 -83 63 -177 113 -257 136 -29 9 -55 20 -59 26
-9 16 -51 29 -139 45 -94 16 -102 16 -180 -1z m-4111 -11929 c27 -55 34 -168
12 -201 -9 -14 -22 -25 -29 -25 -6 0 -32 -16 -56 -35 -24 -19 -48 -35 -54 -35
-6 0 -25 -15 -43 -32 -17 -18 -53 -49 -78 -68 -86 -65 -151 -123 -164 -147 -7
-12 -17 -23 -23 -23 -6 0 -24 -11 -41 -25 -26 -22 -39 -25 -107 -25 -52 0 -96
7 -136 21 -72 25 -177 22 -305 -9 -47 -12 -125 -26 -174 -32 -66 -8 -96 -17
-120 -34 -17 -13 -45 -27 -62 -30 -17 -4 -44 -20 -59 -36 -16 -17 -35 -30 -42
-30 -7 0 -27 -16 -44 -35 -30 -33 -102 -75 -128 -75 -6 0 -23 11 -36 25 -28
27 -34 79 -11 92 7 4 23 27 35 51 12 23 25 42 30 42 5 0 16 16 25 35 18 38 90
128 161 201 25 25 45 50 45 55 0 5 11 15 25 21 14 6 25 16 25 22 0 10 33 47
98 111 17 17 32 38 32 46 0 8 11 27 24 44 22 28 30 30 112 37 49 3 163 7 254
8 91 0 237 5 326 9 146 7 164 10 205 34 24 14 69 34 99 45 30 10 70 28 89 40
30 18 38 19 65 8 20 -7 38 -26 50 -50z m-3944 -421 c37 -32 52 -82 60 -200 5
-80 13 -125 29 -160 14 -30 28 -96 37 -165 8 -63 21 -140 29 -170 8 -30 19
-101 25 -156 6 -56 15 -117 20 -135 13 -44 13 -105 0 -129 -14 -25 -102 -89
-179 -128 -52 -27 -85 -36 -161 -44 -52 -5 -134 -23 -183 -39 -106 -35 -244
-41 -268 -12 -21 25 -16 147 9 210 12 29 28 81 36 117 9 35 24 81 35 102 11
22 24 67 30 100 5 34 19 80 29 101 11 22 26 67 32 102 6 34 20 79 30 99 10 20
21 60 25 87 3 28 19 93 34 145 16 52 33 121 39 152 14 72 36 106 87 130 55 26
173 22 205 -7z m-3878 -875 c45 -13 53 -27 62 -105 4 -33 18 -114 31 -181 14
-66 31 -165 40 -220 9 -54 24 -126 35 -159 11 -33 26 -95 34 -137 8 -43 26
-97 39 -120 14 -24 28 -61 32 -82 3 -22 20 -64 36 -94 16 -30 29 -62 29 -70 0
-18 62 -158 170 -384 33 -70 60 -145 60 -169 0 -27 -76 -89 -108 -89 -35 0
-103 56 -139 114 -95 153 -524 584 -626 630 -17 8 -49 31 -70 50 l-38 34 10
189 c9 162 14 192 31 215 11 15 20 33 20 41 0 7 12 42 26 77 19 48 29 99 39
206 24 243 37 264 169 264 44 0 98 -5 118 -10z"/>
</g>
</svg>
